<svg xmlns="http://www.w3.org/2000/svg" viewBox="0 0 166.23 171.09"><g id="Layer_2" data-name="Layer 2"><g id="Layer_1-2" data-name="Layer 1"><path d="M127.43,18.19c7.91,6.51,15.87,13,23.78,19.64a1.82,1.82,0,0,1,0,1.74c-2.22,2.67-4.63,5.18-6.81,7.87-3.05,3.77-5.91,7.69-8.92,11.48s-6.15,7.57-9.24,11.34Q116,82.73,105.75,95.19c-2.9,3.55-5.75,7.15-8.62,10.74A40.4,40.4,0,0,1,83.36,117.1c-3,1.52-5.75,3.72-8.65,5.56-3.85,2.44-7.74,4.82-11.61,7.23a3.37,3.37,0,0,1-.35.22c-2.15,1.21-4.34,2.24-6.68.53-1.62-1.19-1.84-3.83-.73-6.8,3.31-8.84,6.89-17.59,9.83-26.55,2.08-6.33,6.39-11,10.39-15.87Q99.43,52.1,123.4,22.86C124.69,21.29,126.06,19.78,127.43,18.19Zm-40,87.1L74.72,94.93c-1.58,4.19-3.06,8.14-4.54,12.08s-1.37,4.3,2.3,6.55a1.7,1.7,0,0,0,1.49.08C78.39,111,82.77,108.19,87.41,105.29Z" style="fill:#2379bc"/><path d="M10.28,130.44h7.5V156.3c0,4.52,2.62,7.14,7.09,7.14h110.2a6.42,6.42,0,0,0,6.78-6.74c0-10.23-.1-20.46-.09-30.69q0-28.95.11-57.92a2.62,2.62,0,0,1,.42-1.52c2.28-2.88,4.63-5.71,7.14-8.77,0,.57.09.89.09,1.22q0,48.81,0,97.61A14.15,14.15,0,0,1,135,171.09q-55.25-.09-110.47,0a13.94,13.94,0,0,1-14.38-14.38q0-12.92,0-25.85A2,2,0,0,1,10.28,130.44Z" style="fill:#2f4051"/><path d="M17.79,52.34H10.17v-5.1q0-10.73,0-21.43A13.86,13.86,0,0,1,24.24,11.7h95.32c-2.08,2.52-4,4.88-5.94,7.14a2.56,2.56,0,0,1-1.74.45c-29,0-58,0-87.08.1a7.29,7.29,0,0,0-4.91,1.86,9,9,0,0,0-2,5.42c-.2,8.15-.08,16.31-.07,24.46Z" style="fill:#2f4051"/><path d="M157.07,32.52C149,25.94,141,19.47,133.13,13a1.51,1.51,0,0,1-.13-1.44c2.69-3.27,5.21-6.74,8.27-9.63,2.84-2.68,7.07-2.36,10.14.1q6.08,4.88,12.09,9.85c3.28,2.73,3.63,7.81.89,11.65-.54.75-1.12,1.47-1.7,2.18C160.86,27.91,159,30.14,157.07,32.52Z" style="fill:#2379bc"/><path d="M11,56.12c1.38,0,2.76,0,4.14,0,2.24,0,4.26.16,6.21-1.84,2.36-2.42,6.59-1.59,8.71,1.06a6.47,6.47,0,0,1-.75,9,6.57,6.57,0,0,1-9.1-.47,3.81,3.81,0,0,0-2.4-1c-4.6-.1-9.21,0-13.81-.05-2.5,0-4-1.3-4-3.34s1.53-3.24,4-3.26S8.68,56.11,11,56.12Z" style="fill:#2f4051"/><path d="M10.91,120c1.43,0,2.86,0,4.28,0,2.26,0,4.28.1,6.21-1.88,2.31-2.37,6.48-1.59,8.62,1a6.51,6.51,0,0,1-.59,9,6.29,6.29,0,0,1-8.84-.22,3.9,3.9,0,0,0-3.31-1.34c-4.51.07-9,0-13.54,0-2.23,0-3.69-1.27-3.73-3.19S1.42,120,3.72,120,8.51,120,10.91,120Z" style="fill:#2f4051"/><path d="M11,88c1.42,0,2.85,0,4.28,0,2.2,0,4.16.08,6.06-1.82,2.46-2.45,6.74-1.56,8.9,1.26a6.52,6.52,0,0,1-1.2,9,6.66,6.66,0,0,1-8.89-.86,3.15,3.15,0,0,0-2-.91c-4.74-.08-9.49,0-14.24,0C1.54,94.68,0,93.31,0,91.33S1.57,88.05,3.82,88C6.22,88,8.61,88,11,88Z" style="fill:#2f4051"/><path d="M10.24,66.57h7.48V84.16H10.24Z" style="fill:#2f4051"/><path d="M17.71,116.15H10.28V98.56h7.43Z" style="fill:#2f4051"/><path d="M87.41,105.29c-4.64,2.9-9,5.66-13.44,8.35a1.7,1.7,0,0,1-1.49-.08c-3.67-2.25-3.78-2.62-2.3-6.55s3-7.89,4.54-12.08Z" style="fill:#fefefe"/></g></g></svg>