<svg xmlns="http://www.w3.org/2000/svg" xmlns:xlink="http://www.w3.org/1999/xlink" viewBox="0 0 625 625"><defs><linearGradient id="linear-gradient" x1="92.35" y1="469.2" x2="537.35" y2="469.2" gradientUnits="userSpaceOnUse"><stop offset="0" stop-color="#2265c8"/><stop offset="1" stop-color="#07162b"/></linearGradient><linearGradient id="linear-gradient-2" x1="90.41" y1="265.99" x2="535.41" y2="265.99" xlink:href="#linear-gradient"/><linearGradient id="linear-gradient-3" x1="90.41" y1="223.19" x2="535.41" y2="223.19" xlink:href="#linear-gradient"/><linearGradient id="linear-gradient-4" x1="90.41" y1="211.98" x2="535.41" y2="211.98" xlink:href="#linear-gradient"/><linearGradient id="linear-gradient-5" x1="90.41" y1="157.97" x2="535.41" y2="157.97" xlink:href="#linear-gradient"/></defs><g id="Layer_2" data-name="Layer 2"><g id="Layer_1-2" data-name="Layer 1"><rect width="625" height="625" rx="69.81" style="fill:#fff"/><path d="M478.83,532.28Q504,505.55,504,468.42q0-36.75-25.16-62.89T417,379.4a83.37,83.37,0,0,0-28.14,4.91,67.92,67.92,0,0,0-24.46,15.14L240.84,516a44.25,44.25,0,0,1-15.47,9.1A54.37,54.37,0,0,1,207.68,528q-24,0-39.83-17.56T152,468.5q0-24,16.05-41.07t39.65-17.05a55.85,55.85,0,0,1,18,2.92,38.84,38.84,0,0,1,15.26,9.52L272.78,454,295,432.44l-34.38-33a67.92,67.92,0,0,0-24.46-15.14,84.49,84.49,0,0,0-28.53-4.91q-36.26,0-61.41,26.13T121,468.42q0,37.14,25,63.86T207.58,559a88.24,88.24,0,0,0,28.34-4.71,68.14,68.14,0,0,0,24.65-14.56L384.16,423.19a45.1,45.1,0,0,1,15.07-9.5,48.69,48.69,0,0,1,17.69-3.31,52.84,52.84,0,0,1,39.84,17.08q16.25,17.09,16.24,41,0,24.35-16,41.94t-40,17.59a56,56,0,0,1-17.83-2.91A37.7,37.7,0,0,1,384.15,516L353,484.84l-21.95,21.51,33.38,33a62.14,62.14,0,0,0,24.26,14.95A88.24,88.24,0,0,0,417,559Q453.67,559,478.83,532.28Z" style="fill:url(#linear-gradient)"/><path d="M198.59,311.16a213.25,213.25,0,0,1,51.2,6.13,227.32,227.32,0,0,1,49,18.42V126.05a186.41,186.41,0,0,0-47.93-22.83,173.63,173.63,0,0,0-52.23-8.1A145.08,145.08,0,0,0,162,99.78a354.31,354.31,0,0,0-36.09,11.54V324.41a138.84,138.84,0,0,1,34.62-10.06A233.82,233.82,0,0,1,198.59,311.16Z" style="fill:none"/><path d="M426.41,311.16A263.37,263.37,0,0,1,465,314.1,193.11,193.11,0,0,1,499.08,322V111.32a135.63,135.63,0,0,0-35.27-12.41,186.34,186.34,0,0,0-37.4-3.79,164.17,164.17,0,0,0-51.31,8.1,191.28,191.28,0,0,0-46.89,22.83V335.71a247.38,247.38,0,0,1,48.12-18.42A198.09,198.09,0,0,1,426.41,311.16Zm-74.63-158.1a171.9,171.9,0,0,1,33.14-10.31,178.79,178.79,0,0,1,35.6-3.44,158.14,158.14,0,0,1,25,2q12.27,2,24.06,4.91v21.61a136.14,136.14,0,0,0-49.1-8.84,136.15,136.15,0,0,0-35.84,4.66,157.87,157.87,0,0,0-32.9,13Zm0,54a171.9,171.9,0,0,1,33.14-10.31,178.05,178.05,0,0,1,35.6-3.44,158.14,158.14,0,0,1,25,2q12.27,2,24.06,4.91V221.8a136.14,136.14,0,0,0-49.1-8.84,136.15,136.15,0,0,0-35.84,4.66,158.39,158.39,0,0,0-32.9,13Zm0,53.51a177.92,177.92,0,0,1,33.14-9.94,185.06,185.06,0,0,1,35.6-3.31,158.14,158.14,0,0,1,25,2q12.27,2,24.06,4.91v21.61a136.14,136.14,0,0,0-49.1-8.84,143.11,143.11,0,0,0-35.84,4.42,135.57,135.57,0,0,0-32.9,13.25Z" style="fill:none"/><path d="M90.41,104a43.64,43.64,0,0,0-.33,5.28V336.33a35.28,35.28,0,0,0,.33,4.78Z" style="fill:none"/><path d="M420.52,267a136.14,136.14,0,0,1,49.1,8.84V254.2q-11.79-2.94-24.06-4.91a158.14,158.14,0,0,0-25-2,185.06,185.06,0,0,0-35.6,3.31,177.92,177.92,0,0,0-33.14,9.94v24.06a135.57,135.57,0,0,1,32.9-13.25A143.11,143.11,0,0,1,420.52,267Z" style="fill:url(#linear-gradient-2)"/><path d="M103.66,360.92q13.59,8.29,27.71,1.24,16.62-5.84,33.29-10.39a127.88,127.88,0,0,1,33.93-4.56,173.4,173.4,0,0,1,60.76,10.9,228.59,228.59,0,0,1,54.74,29.28A262.14,262.14,0,0,1,367.3,358.5a157.08,157.08,0,0,1,59.11-11.29,134.56,134.56,0,0,1,33.93,4.32,284.91,284.91,0,0,1,32.8,10.63q13.86,8.54,27.82,1t14-23.76V109.27a37.8,37.8,0,0,0-4.79-18.72,32.42,32.42,0,0,0-13.89-13.23,213.62,213.62,0,0,0-43.58-13.79A229.92,229.92,0,0,0,427,59a207.09,207.09,0,0,0-59.6,8.62,187.73,187.73,0,0,0-53.9,26.09A186,186,0,0,0,258.6,67.49,216.93,216.93,0,0,0,198,59a244.2,244.2,0,0,0-46,4.32,191.22,191.22,0,0,0-43.74,14A30.91,30.91,0,0,0,94.63,90.55,38.51,38.51,0,0,0,90.41,104V341.11Q92.17,353.88,103.66,360.92ZM328.21,126.05a191.28,191.28,0,0,1,46.89-22.83,164.17,164.17,0,0,1,51.31-8.1,186.34,186.34,0,0,1,37.4,3.79,135.63,135.63,0,0,1,35.27,12.41V322A193.11,193.11,0,0,0,465,314.1a263.37,263.37,0,0,0-38.54-2.94,198.09,198.09,0,0,0-50.08,6.13,247.38,247.38,0,0,0-48.12,18.42ZM125.92,111.32A354.31,354.31,0,0,1,162,99.78a145.08,145.08,0,0,1,36.58-4.66,173.63,173.63,0,0,1,52.23,8.1,186.41,186.41,0,0,1,47.93,22.83V335.71a227.32,227.32,0,0,0-49-18.42,213.25,213.25,0,0,0-51.2-6.13,233.82,233.82,0,0,0-38.05,3.19,138.84,138.84,0,0,0-34.62,10.06Z" style="fill:url(#linear-gradient-3)"/><path d="M420.52,213a136.14,136.14,0,0,1,49.1,8.84V200.19q-11.79-2.94-24.06-4.91a158.14,158.14,0,0,0-25-2,178.05,178.05,0,0,0-35.6,3.44,171.9,171.9,0,0,0-33.14,10.31v23.56a158.39,158.39,0,0,1,32.9-13A136.15,136.15,0,0,1,420.52,213Z" style="fill:url(#linear-gradient-4)"/><path d="M420.52,159a136.14,136.14,0,0,1,49.1,8.84V146.18q-11.79-2.94-24.06-4.91a158.14,158.14,0,0,0-25-2,178.79,178.79,0,0,0-35.6,3.44,171.9,171.9,0,0,0-33.14,10.31v23.57a157.87,157.87,0,0,1,32.9-13A136.15,136.15,0,0,1,420.52,159Z" style="fill:url(#linear-gradient-5)"/></g></g></svg>